<?xml version="1.0" encoding="UTF-8"?><svg id="Camada_3" xmlns="http://www.w3.org/2000/svg" viewBox="0 0 453.8381102 453.8381102"><defs><style>.cls-1{fill:#fff;}</style></defs><path class="cls-1" d="M143.4194365,180.6437543c-.050639.0882821-.0860414.1752198-.1357842.2635019l.0300249-.0524315.1057593-.2110704Z"/><path class="cls-1" d="M371.5865679,218.4168461c.1169626.1174107.2514024.2159999.3679168.3338587-3.4806454-4.1541887-7.255714-8.0336721-11.1544671-11.7800601-.9594518-.9249456-1.9153185-1.8516837-2.897625-2.7515338-1.365908-1.2467047-2.7515338-2.4638327-4.1591181-3.6612429-1.3811445-1.1794848-2.7887288-2.3217747-4.2079646-3.4524131-1.1552857-.9168792-2.2975755-1.8467542-3.4766123-2.7309197-2.6798326-2.0165964-5.4044784-3.9700062-8.1994811-5.8136235-41.2739033-27.3396701-94.2642318-35.1510684-136.3824168-13.9337851-15.3059669,7.6003279-43.3850557,28.1839518-35.1510684,48.0290532,4.4333752,10.6615213,20.2672423,13.1952627,39.1623027-.2110704-28.1265908,35.2899895-86.4089165,1.3004806-62.2043817-41.5378533l-1.9310031,3.3363468,1.2220574-2.1219076-15.9391782,27.5507405c-.0085145.0524315-.0120996.1030705-.0161328.1541576l-48.1191278,83.5543123c-23.7505765,41.0623847-9.4999617,94.0531614,31.562423,117.6984268,4.0103381,2.309227,8.1573566,4.151948,12.3568067,5.7504368-.1088962.0125477-.2142074.0430207-.3231036.0551203,1.0477339.4001824,2.1156337.693261,3.1718821,1.0504227.4566471.155502.912846.3065227,1.3708374.4539583,2.1425217.6842984,4.2971429,1.278074,6.4661044,1.788497.5870536.1389211,1.1714185.2854604,1.7598165.4118338,2.0959159.4467881,4.1963131.7994685,6.3052249,1.0871695.6166304.0846971,1.2301238.1909045,1.8476505.2621575,2.2034677.2527468,4.4064873.4006305,6.6112994.4830869.4889126.0183734.9773771.067668,1.4662897.0779751,8.1627342.1676016,16.2784145-.8120162,24.1122195-2.8819404.4405143-.1165145.8693771-.2688795,1.3076508-.392116,2.1245964-.5969125,4.2285787-1.254323,6.3025361-2.0107707.6197673-.2263069,1.2251944-.4880163,1.8395841-.7286635,1.8758828-.7322486,3.7302553-1.5111029,5.5537066-2.3733099.6672694-.3154853,1.3201985-.656066,1.9794014-.9890285,1.7423393-.8787879,3.4568944-1.8073185,5.1405284-2.8053097.6614436-.392116,1.3134765-.7958834,1.9650612-1.2059247,1.6406132-1.0324974,3.2435833-2.1223557,4.8169767-3.2686788.6318669-.4602321,1.2619412-.9191198,1.8821567-1.3972773,1.5478498-1.193377,3.0455087-2.4535257,4.5162797-3.7584876.5803316-.5144562,1.1682815-1.0145721,1.7356173-1.5460573,1.4725635-1.3802482,2.8814922-2.8375752,4.263533-4.3320973.4960827-.5355184,1.010987-1.0454932,1.4949702-1.5958,1.4326797-1.6316506,2.7851437-3.3497907,4.1035497-5.1073666.3674687-.4889126.7654104-.9446634,1.1234683-1.4434349,1.6401651-2.2877166,3.1992182-4.6587859,4.6336905-7.1463696l50.3490354-87.5072894.0026888-.0013444,15.7285559-27.3396701c8.1277799-5.7002459,16.1502486-11.7173215,24.1727174-17.5228786,23.9620951-17.4171193,46.9737011-27.8675702,68.7188845-7.0724278-4.4320308-7.6975727-9.5613559-14.9281912-15.2517429-21.6569013ZM113.8628548,296.7589288l-7.4950167,12.9837441c-9.4999617,19.7393422-15.9391782,41.695596-14.0390962,63.3354683.2110704,2.0053931.4221409,4.1165455.8442817,6.2276979-15.5170374-21.8504946-18.4729196-51.301317-5.5944866-76.3187642l7.9167095-13.6174035c8.2339873-14.0395444,24.1731655-2.7443637,18.3676085,7.3892575Z"/><path class="cls-1" d="M322.4474904,42.7838444c-2.3352187-1.3470864-4.716595-2.5413596-7.1208261-3.648247-.8106718-.3732944-1.6320987-.6950536-2.4494925-1.0410119-1.6657087-.7053606-3.3394837-1.3663561-5.0293915-1.9601317-.8595182-.3011451-1.7194846-.5888462-2.5848285-.8608626-1.8328621-.5785391-3.6746868-1.0835845-5.5272668-1.5344058-.6556179-.1586389-1.3058582-.3405807-1.9632687-.4830869-5.2081964-1.1369123-10.4652392-1.7719161-15.7164563-1.9220405-.3965973-.0116514-.7914021.0008963-1.1879994-.0049295-2.1936088-.0322655-4.3809437.0183734-6.5637973.1550539-.6399333.0389875-1.2767296.0891784-1.9148703.1425061-.8008129.0681161-1.6065552.087834-2.4046792.1788049.0672199.0259917.1321991.0600498.199419.0860414-26.4317535,2.8935918-51.2332009,17.79131-65.4349692,42.4542844l-52.3571173,90.8862088-2.9558822,5.0670346c-13.3005738,35.8900389-2.3222228,51.0906947,12.878433,57.7409816-.6336594-.950041-1.1615595-2.0058413-1.6890115-3.0611934-9.8172396-23.8563358,19.634031-46.6573195,38.0011913-55.8408997,45.6015192-22.9062948,100.9145188-13.0895034,142.2937332,14.0395444l13.1948145-22.6952244c23.6452654-41.0628329,9.3946506-94.0531614-31.6677341-117.6984268ZM280.5403758,46.6893195c-25.1227584,11.7173215-44.1235781,35.5736574-57.3183926,59.2189227l-18.68399,32.5120158c-9.3946506,16.2560079-25.4395881,6.0166275-18.2618492-6.7555981l29.4508225-50.9853836c14.6727557-25.6506585,42.8571555-38.9512323,70.6194146-36.4174909-2.0058413.7385224-4.0112344,1.5832523-5.8060052,2.427534Z"/></svg>