<?xml version="1.0" encoding="UTF-8"?><svg id="Camada_3" xmlns="http://www.w3.org/2000/svg" xmlns:xlink="http://www.w3.org/1999/xlink" viewBox="0 0 453.8381102 453.8381102"><defs><style>.cls-1{fill:url(#linear-gradient-2);}.cls-2{mask:url(#mask-1);}.cls-3{fill:#fff;}.cls-4{mask:url(#mask);}.cls-5{fill:url(#linear-gradient-4);}.cls-6{mask:url(#mask-2);}.cls-7{fill:url(#linear-gradient-3);}.cls-8{fill:url(#linear-gradient-5);}.cls-8,.cls-9,.cls-10,.cls-11,.cls-12,.cls-13,.cls-14{fill-rule:evenodd;}.cls-9{fill:#003301;}.cls-15{fill:url(#linear-gradient-8);}.cls-10{fill:#102770;}.cls-16{fill:url(#linear-gradient-9);}.cls-11{fill:#b8f54f;}.cls-17{fill:url(#linear-gradient-6);}.cls-12{fill:#006c11;}.cls-13{fill:url(#linear-gradient-7);}.cls-18{mask:url(#mask-4);}.cls-14{fill:#007c21;}.cls-19{fill:url(#linear-gradient);}.cls-20{mask:url(#mask-3);}</style><linearGradient id="linear-gradient" x1="339.6703183" y1="235.3552131" x2="47.984143" y2="179.5811848" gradientUnits="userSpaceOnUse"><stop offset="0" stop-color="#006100"/><stop offset="1" stop-color="#cfff5b"/></linearGradient><linearGradient id="linear-gradient-2" x1="317.7961829" y1="349.7522375" x2="26.1100077" y2="293.9782093" xlink:href="#linear-gradient"/><linearGradient id="linear-gradient-3" x1="9883.800337" y1="-13951.1128751" x2="4442.9143222" y2="-17031.5123789" gradientTransform="translate(-239.3628 -811.7537803) scale(.072 -.072)" gradientUnits="userSpaceOnUse"><stop offset="0" stop-color="#fff"/><stop offset="1" stop-color="#fff" stop-opacity="0"/></linearGradient><mask id="mask" x="123.3358389" y="264.2344306" width="169.817906" height="156.0187006" maskUnits="userSpaceOnUse"><g id="id0"><rect class="cls-7" x="123.3358389" y="264.2344306" width="169.817906" height="155.9445739"/></g></mask><linearGradient id="linear-gradient-4" x1="390.2671539" y1="-10707.4715551" x2="7973.3899935" y2="-16059.9681025" xlink:href="#linear-gradient-3"/><mask id="mask-1" x="122.794694" y="197.9971482" width="170.3590509" height="114.2202423" maskUnits="userSpaceOnUse"><g id="id2"><rect class="cls-5" x="122.8142764" y="197.9971482" width="170.3394686" height="114.2202423"/></g></mask><linearGradient id="linear-gradient-5" x1="401.1632661" y1="211.3651329" x2="139.5589127" y2="87.9163873" gradientUnits="userSpaceOnUse"><stop offset="0" stop-color="#004790"/><stop offset="1" stop-color="#1297e0"/></linearGradient><linearGradient id="linear-gradient-6" x1="11939.1148909" y1="-13982.7814718" x2="6628.0646182" y2="-12472.0734972" xlink:href="#linear-gradient-3"/><mask id="mask-2" x="269.4752331" y="33.584979" width="94.4276278" height="150.1215999" maskUnits="userSpaceOnUse"><g id="id4"><rect class="cls-17" x="269.4752331" y="33.6033833" width="94.401171" height="150.1031956"/></g></mask><linearGradient id="linear-gradient-7" x1="9101.3713074" y1="-14074.3747719" x2="4616.4707828" y2="-14794.3214861" gradientTransform="translate(-239.3628 -811.7537803) scale(.072 -.072)" xlink:href="#linear-gradient"/><linearGradient id="linear-gradient-8" x1="3219.5481983" y1="-14339.1916581" x2="8754.859999" y2="-14929.2870275" xlink:href="#linear-gradient-3"/><mask id="mask-3" x="126.3608405" y="197.5798982" width="258.8993225" height="102.3287995" maskUnits="userSpaceOnUse"><g id="id6"><rect class="cls-15" x="126.3608405" y="197.5798982" width="258.8993225" height="102.3287995"/></g></mask><linearGradient id="linear-gradient-9" x1="9272.3170229" y1="-13417.8988877" x2="5047.9099265" y2="-14550.7977305" xlink:href="#linear-gradient-3"/><mask id="mask-4" x="165.2687333" y="162.8443825" width="205.3879228" height="68.9494076" maskUnits="userSpaceOnUse"><g id="id8"><rect class="cls-16" x="165.2687333" y="162.8443825" width="205.3879228" height="68.9494076"/></g></mask></defs><g id="Layer_1-2"><g id="_2244124604544"><path class="cls-3" d="M82.7666008,298.3965442c-1.8705266,7.7991746-3.7411085,15.5981279-5.611635,23.3973025v45.4669917c11.9750344,5.4311252,23.9501241,10.8622504,35.9251585,16.2933756,12.2842979-76.4874427,13.401178-116.2622591,3.3491459-119.3197995-2.8908138-.8792449-6.7051557,1.278016-11.4428045,6.4713399-5.0813425,1.8091942-10.1626297,3.618167-15.2439722,5.4273611-2.325316,7.4212167-4.6505767,14.8422119-6.9758928,22.2634286Z"/><path class="cls-3" d="M247.2972131,48.3779087c-9.4751314,5.8881289-18.9503182,11.7762577-28.4254497,17.6643866-17.6054344,26.9140607-35.2109242,53.8281214-52.8163587,80.742182,11.0034034,2.7951618,22.0068069,5.5903237,33.0102103,8.3854855,19.1474343-30.1648977,38.2948132-60.3300168,57.4422475-90.4949144,9.711881-6.0805398,19.4237621-12.1608582,29.1356431-18.241398-12.7820975.6480861-25.564195,1.2961722-38.3462925,1.9442582Z"/><path class="cls-19" d="M127.8213703,209.8886214c-.007971.0513686-.0075282.0996374-.0154992.151006l15.766183-27.3763783-15.7506838,27.2253723Z"/><path class="cls-1" d="M151.3955846,276.4388918c-19.6777268-15.9295883-27.8116832-39.4475628-23.5897134-66.3992643l-47.5505209,82.5670968c-23.4697057,40.5767869-9.3876166,92.9409024,31.1891704,116.3065424s92.9409024,9.3880594,116.4106081-31.1887275l65.2988243-113.4901246c-43.3936476,30.8760875-88.6644643,55.0760247-141.7583685,12.2044772ZM115.1997444,295.9447993l-7.4063818,12.8302002c-9.3876166,19.5063504-15.7506838,41.2029528-13.8730719,62.5864723.2085743,1.9821205.4171487,4.0683067.8342974,6.1544929-15.3335351-21.5925366-18.2544615-50.695078-5.5283271-75.4166725l7.8230876-13.4563661c8.1366134-13.8730719,23.8872972-2.7119092,18.1503958,7.3018732Z"/><g class="cls-4"><path class="cls-12" d="M123.3358389,414.6505637c38.4906428,14.7078194,83.3442874-.208625,104.5193751-36.9260172l65.2985309-113.4901159h0c-19.9233226,14.1862568-40.2639564,27.0165122-61.5433417,32.4406404l-43.7062226,75.9382236c-14.081944,24.3044481-38.4906428,39.11658-64.5683417,42.0372691Z"/></g><g class="cls-2"><path class="cls-9" d="M134.8100313,197.9971482l-10.0138173,17.315571c-5.3198768,23.8871369-.2086122,47.3570849,17.4198831,65.5071559,43.6018945,44.9578971,87.2038046,35.1527046,135.3953284,10.4310676l15.5423195-27.0165122h0c-43.3932706,30.8760139-88.6641201,55.0760883-141.7583306,12.2043803-19.7146971-15.9595695-27.8509376-39.5337689-23.5741988-66.5502811l6.9888157-11.8913816h0Z"/></g><path class="cls-8" d="M321.3176885,44.9731873c-40.5767869-23.4701485-92.9409024-9.3880594-116.3065424,31.1887275l-51.7379496,89.8118445-2.9209264,5.0066698c-13.1432832,35.4656086-2.2947606,50.4865036,12.7261345,57.0581452-.6261658-.9388059-1.1478231-1.9821205-1.6690375-3.0249922-9.7011423-23.5742143,19.4018418-46.1055568,37.5517948-55.1805333,45.0622423-22.6354083,99.7211184-12.934266,140.6109882,13.8735148l13.0387746-22.426834c23.3656399-40.5767869,9.2835508-92.9409024-31.2932361-116.3065424ZM279.9061614,48.8324768c-24.8256603,11.5787542-43.6017791,35.1529685-56.6405537,58.5186084l-18.4630359,32.1275335c-9.2835508,16.0637667-25.1387432,5.9459186-18.0458872-6.6757073l29.1025413-50.381995c14.4992378-25.3477604,42.3503331-38.4910436,69.7842797-35.9872658-1.9821205.7297888-3.9637981,1.564529-5.7373442,2.3988263Z"/><g class="cls-6"><path class="cls-10" d="M352.6108976,161.279756c23.3655743-40.576894,9.28363-92.9409182-31.293264-116.3064925-16.2724459-9.3879425-34.422517-12.8301942-51.8424005-10.8483177,4.0680656,1.5646877,8.0318799,3.4422517,11.8913816,5.7370658,40.576894,23.3656355,54.6588383,75.7295985,31.293264,116.3064925l-6.2586895,10.7440051c11.6828177,4.3810643,22.9483854,10.0138176,33.170828,16.7940696l13.0388804-22.4268229Z"/></g><path class="cls-13" d="M201.7774996,175.2573878c-15.1250691,7.5103785-42.871707,27.8509511-34.7354397,47.4613974,4.3810502,10.5353801,20.0276207,13.0388192,38.6992539-.208625-27.8509504,34.9440795-85.6391014,1.1474376-61.3347151-41.3070815l-.1043125.208625-16.4810705,28.4768262c-4.2767388,27.0165122,3.8595016,50.5907115,23.5741988,66.5502811,53.0942104,42.8717081,98.36506,18.6716336,141.7583306-12.2043803,8.031941-5.6327533,15.9595695-11.5784441,23.8871369-17.315571,23.678573-17.2112585,46.4183334-27.5380136,67.9063437-6.9888159-11.8914428-20.6535102-28.7897637-37.9690812-48.40021-50.9036491-40.785519-27.016451-93.1494821-34.7354545-134.7695159-13.7690068Z"/><g class="cls-20"><path class="cls-11" d="M255.8104776,269.7629325c-48.5044763,32.1277029-131.6401387-1.8776252-121.0004463-71.7657843l-6.9888157,11.8913816c-4.2767388,27.0165122,3.8595016,50.5907115,23.5741988,66.5502811,28.6854505,23.1570104,55.1803995,26.8078872,80.2149889,20.2362602,21.2793853-5.4241283,41.6200191-18.2543836,61.5433417-32.4406404,8.031941-5.6327533,15.9595695-11.5784441,23.8871369-17.315571,23.678573-17.2112585,46.4183334-27.5380136,67.9063437-6.9888159-31.8148265-41.202769-64.7769684-12.7258817-129.1367479,29.8328888Z"/></g><g class="cls-18"><path class="cls-14" d="M194.1628088,195.285023c30.0415131-32.1277029,125.1729482-27.9552636,176.0765973,23.5742605-9.7009412-11.5785052-21.1750728-21.5923228-33.6923906-29.8328888-40.785519-27.016451-93.1494821-34.7354545-134.7695159-13.7690068-15.1250691,7.5103785-42.871707,27.8509511-34.7354397,47.4613974,4.3810502,10.5353801,20.0276207,13.0388192,38.6992539-.208625-26.8078253,6.3629408-21.4880097-16.7940696-11.5785049-27.2251372Z"/></g></g></g></svg>