<?xml version="1.0" encoding="UTF-8"?><svg id="Layer_1" xmlns="http://www.w3.org/2000/svg" viewBox="0 0 453.8388626 59.7497455"><path d="M417.7379367,29.0796524l9.4625243-21.1771639,9.4615816,21.1771639h-18.9241059ZM442.9138982,42.9912091h4.39287l-18.0226791-39.4254336h-4.1111242l-18.0236218,39.4254336h4.3367094l4.7308051-10.5324204h21.9662641l4.7307765,10.5324204ZM380.1724135,42.9912091h26.2458702v-3.6047251h-22.0785853V3.5657755h-4.1672848v39.4254336ZM351.4479054,43.3291227c10.0821766,0,16.1646077-5.8577956,16.1646077-17.1783664V3.5657755h-4.0549635v22.4164918c0,9.3492532-4.39287,13.6298055-12.1096441,13.6298055-7.6596993,0-12.0525694-4.2805523-12.0525694-13.6298055V3.5657755h-4.1682275v22.5849809c0,11.3205708,6.1395343,17.1783664,16.2207969,17.1783664h0ZM319.2890002,3.5657755l-16.9527705,29.2309268-17.122195-29.2309268h-3.4352969v39.4254336h3.9987886V11.6195384l15.4887947,26.359127h1.9713069l15.4888232-26.527616v31.5401598h3.9988029V3.5657755h-3.4362539ZM255.7022922,26.9398458h-10.476258V7.170497h10.476258c7.8852703,0,12.0525551,3.6047251,12.0525551,9.9127556,0,6.1957057-4.1672848,9.8565932-12.0525551,9.8565932h0ZM272.5427414,42.9912091l-9.6310062-13.5174807c5.7445245-1.8580572,9.0113396-6.1947702,9.0113396-12.3904759,0-8.4487727-6.0824453-13.5174771-16.1084613-13.5174771h-14.7558784v39.4254336h4.1672991v-12.5037398h10.5885793c1.1269977,0,2.1407457-.0561624,3.1544795-.168489l9.0113396,12.6722288h4.5623089ZM211.0396615,39.6120728c-9.5186849,0-16.614864-6.9276972-16.614864-16.3331146,0-9.4063529,7.0961791-16.3340465,16.614864-16.3340465,9.4615816,0,16.5025427,6.9276936,16.5025427,16.3340465,0,9.4054174-7.0409611,16.3331146-16.5025427,16.3331146h0ZM211.0396615,43.3291227c11.8279125,0,20.6698275-8.5049405,20.6698275-20.0501645,0-11.5461595-8.841915-20.0510964-20.6698275-20.0510964-11.9402338,0-20.7269308,8.5611011-20.7269308,20.0510964,0,11.4890616,8.786697,20.0501645,20.7269308,20.0501645h0ZM185.6942754,7.170497v-3.6047215h-27.0349614v39.4254336h4.1682275v-16.7271888h20.3890101v-3.6047251h-20.3890101V7.170497h22.8667339Z"/><path d="M152.7711228,3.6900024l-17.3499756,40.7699585c-3.710022,9.2800293-8.9899902,12.0599976-15.9199829,12.0599976-3.9300537,0-8.210022-1.2799683-10.710022-3.5l4.0700073-7.9199829c1.7099609,1.5,4.0700073,2.4299927,6.2799683,2.4299927,3.0700073,0,4.7900391-1.3599854,6.2900391-4.789978l.1399536-.3499756L108.931157,3.6900024h12.8299561c-6.6300049,8.2799683-1.7199707,14.0499878,3.1100464,20.7699585.8800049,1.25,1.8099976,2.4800415,2.7099609,3.7000122,2.6900024,3.6699829,4.3099976,7.2000122,1.1300049,10.5499878,3.2000122-1.8599854,5.8800049-4.5,7.8699951-7.5599976,4.1700439-6.3499756,5.3400269-14.4899902,2.0499878-20.9400024-.9599609-2.8599854-5.1899414-6.2099609-8.2299805-4.9299927l-.5299683-1.5899658h22.8999634Z"/><polygon points="95.298834 3.8312352 80.7676142 28.331373 66.011743 3.8312352 58.4634455 3.8312352 58.4634455 43.2566688 67.0245483 43.2566688 67.0245483 20.1081855 78.5716434 39.0884449 82.6827694 39.0884449 94.284154 19.6017828 94.3412538 43.2566688 102.9014193 43.2566688 102.7890945 3.8312352 95.298834 3.8312352"/><path d="M16.9776611,23.1663311c-.006897.0120239-.0117188.0238647-.0184937.0358887l.0040894-.0071411.0144043-.0287476Z"/><path d="M48.053772,28.3109844c.0159302.0159912.0342407.0294189.0501099.0454712-.4740601-.5657959-.9882202-1.0941772-1.5192261-1.6044312-.1306763-.1259766-.2608643-.2521973-.3946533-.3747559-.1860352-.1697998-.3747559-.3355713-.5664673-.4986572-.1881104-.1606445-.3798218-.3162231-.5731201-.4702148-.1573486-.1248779-.3129272-.2515259-.4735107-.3719482-.3649902-.2746582-.736084-.5407104-1.1167603-.7918091-5.62146-3.7236328-12.8386841-4.7875366-18.5751343-1.8977661-2.0846558,1.0351562-5.9089966,3.838623-4.7875366,6.5415039.6038208,1.4520874,2.760376,1.7971802,5.3338623-.0287476-3.8308105,4.8064575-11.7687988.177124-8.472168-5.6574097l-.2630005.4544067.1664429-.2890015-2.1708984,3.7523804c-.0011597.0071411-.0016479.0140381-.0021973.0209961l-6.553772,11.3800049c-3.2348022,5.5926514-1.2938843,12.8099365,4.2987671,16.0303955.5462036.3145142,1.1110229.5654907,1.6829834.7832031-.0148315.001709-.0291748.0058594-.0440063.0075073.1427002.0545044.288147.0944214.4320068.1430664.0621948.0211792.1243286.041748.1867065.0618286.2918091.0932007.5852661.1740723.8806763.2435913.0799561.0189209.1595459.0388794.2396851.0560913.2854614.0608521.5715332.1088867.8587646.1480713.0839844.0115356.1675415.026001.2516479.0357056.3001099.0344238.6001587.0545654.9004517.0657959.0665894.0025024.1331177.0092163.199707.0106201,1.1117554.0228271,2.2171021-.1105957,3.2840576-.3925171.0599976-.0158691.1184082-.0366211.1781006-.0534058.2893677-.0812988.5759277-.1708374.8583984-.2738647.0844116-.0308228.1668701-.0664673.2505493-.0992432.2554932-.0997314.5080566-.2058105.7564087-.3232422.0908813-.0429688.1798096-.0893555.2695923-.1347046.2373047-.1196899.4708252-.2461548.7001343-.3820801.0900879-.0534058.178894-.1083984.2676392-.1642456.2234497-.140625.4417725-.2890625.6560669-.4451904.0860596-.0626831.171875-.1251831.2563477-.1903076.2108154-.1625366.4147949-.3341675.6151123-.5119019.0790405-.0700684.1591187-.1381836.2363892-.2105713.2005615-.1879883.3924561-.3864746.5806885-.5900269.0675659-.072937.1376953-.142395.2036133-.2173462.1951294-.222229.3793335-.4562378.5588989-.6956177.0500488-.0665894.104248-.1286621.1530151-.1965942.2233887-.3115845.43573-.6345215.6311035-.9733276l6.8574829-11.918396.0003662-.0001831,2.1422119-3.7236328c1.1069946-.7763672,2.199646-1.5958862,3.2922974-2.3865967,3.2636108-2.3721924,6.3977661-3.7955322,9.359436-.9632568-.6036377-1.0484009-1.3022461-2.0332031-2.0772705-2.949646ZM12.9520874,38.9810894l-1.020813,1.7683716c-1.2938843,2.6884766-2.1708984,5.678894-1.9121094,8.6262207.0287476.2731323.0574951.5606689.1149902.8482056-2.1134033-2.9760132-2.5159912-6.9871826-.7619629-10.3945312l1.0782471-1.8546753c1.12146-1.9121704,3.2923584-.3737793,2.5016479,1.0064087Z"/><path d="M41.361084,4.3899639c-.3180542-.1834717-.642395-.3461304-.9698486-.4968872-.1104126-.0508423-.22229-.0946655-.3336182-.1417847-.2268677-.0960693-.454834-.1860962-.6849976-.2669678-.1170654-.0410156-.2341919-.0802002-.3520508-.1172485-.2496338-.0787964-.5004883-.147583-.7528076-.2089844-.0892944-.0216064-.1778564-.0463867-.267395-.0657959-.7093506-.1548462-1.425354-.241333-2.140564-.2617798-.0540161-.0015869-.1077881.0001221-.1618042-.0006714-.2987671-.0043945-.5966797.0025024-.8939819.0211182-.0871582.0053101-.1738892.012146-.2608032.0194092-.1090698.0092773-.218811.0119629-.3275146.024353.0091553.00354.0180054.0081787.0271606.0117188-3.5999756.394104-6.9779053,2.4231567-8.9121704,5.7822266l-7.1309814,12.3786011-.4025879.6901245c-1.8115234,4.8881836-.3162842,6.9584961,1.7540283,7.8642578-.0863037-.1293945-.1582031-.2731934-.2300415-.4169312-1.3370972-3.2492065,2.6741333-6.3546753,5.1757202-7.6054688,6.2108765-3.119812,13.7444458-1.7827759,19.380249,1.9121704l1.7971191-3.0910645c3.220459-5.5927124,1.279541-12.8099365-4.3131104-16.0303955ZM35.6533813,4.9218853c-3.4216919,1.5958862-6.0095825,4.8450928-7.8067017,8.0655518l-2.5447388,4.4281006c-1.279541,2.2140503-3.4648438.819458-2.4872437-.920105l4.0111694-6.9441528c1.9984131-3.4935913,5.8370972-5.3051147,9.6182861-4.960022-.2731934.1005859-.5463257.2156372-.7907715.3306274Z"/></svg>