<?xml version="1.0" encoding="UTF-8"?><svg id="Layer_1" xmlns="http://www.w3.org/2000/svg" viewBox="0 0 453.8388626 59.7497455"><defs><style>.cls-1{fill:#6bae2e;}.cls-2{fill:#0072b1;}</style></defs><path class="cls-2" d="M391.7722612,29.080615l9.4625243-21.1771639,9.4615816,21.1771639h-18.9241059ZM416.9482227,42.9921717h4.39287l-18.0226791-39.4254336h-4.1111242l-18.0236218,39.4254336h4.3367094l4.7308051-10.5324204h21.9662641l4.7307765,10.5324204ZM354.2067379,42.9921717h26.2458702v-3.6047251h-22.0785853V3.5667381h-4.1672848v39.4254336ZM325.4822298,43.3300853c10.0821766,0,16.1646077-5.8577956,16.1646077-17.1783664V3.5667381h-4.0549635v22.4164918c0,9.3492532-4.39287,13.6298055-12.1096441,13.6298055-7.6596993,0-12.0525694-4.2805523-12.0525694-13.6298055V3.5667381h-4.1682275v22.5849809c0,11.3205708,6.1395343,17.1783664,16.2207969,17.1783664h0ZM293.3233246,3.5667381l-16.9527705,29.2309268-17.122195-29.2309268h-3.4352969v39.4254336h3.9987886V11.620501l15.4887947,26.359127h1.9713069l15.4888232-26.527616v31.5401598h3.9988029V3.5667381h-3.4362539ZM229.7366166,26.9408084h-10.476258V7.1714596h10.476258c7.8852703,0,12.0525551,3.6047251,12.0525551,9.9127556,0,6.1957057-4.1672848,9.8565932-12.0525551,9.8565932h0ZM246.5770658,42.9921717l-9.6310062-13.5174807c5.7445245-1.8580572,9.0113396-6.1947702,9.0113396-12.3904759,0-8.4487727-6.0824453-13.5174771-16.1084613-13.5174771h-14.7558784v39.4254336h4.1672991v-12.5037398h10.5885793c1.1269977,0,2.1407457-.0561624,3.1544795-.168489l9.0113396,12.6722288h4.5623089ZM185.0739859,39.6130354c-9.5186849,0-16.614864-6.9276972-16.614864-16.3331146,0-9.4063529,7.0961791-16.3340465,16.614864-16.3340465,9.4615816,0,16.5025427,6.9276936,16.5025427,16.3340465,0,9.4054174-7.0409611,16.3331146-16.5025427,16.3331146h0ZM185.0739859,43.3300853c11.8279125,0,20.6698275-8.5049405,20.6698275-20.0501645,0-11.5461595-8.841915-20.0510964-20.6698275-20.0510964-11.9402338,0-20.7269308,8.5611011-20.7269308,20.0510964,0,11.4890616,8.786697,20.0501645,20.7269308,20.0501645h0ZM159.7285999,7.1714596v-3.6047215h-27.0349614v39.4254336h4.1682275v-16.7271888h20.3890101v-3.6047251h-20.3890101V7.1714596h22.8667339Z"/><path class="cls-1" d="M126.804344,3.690965l-17.3500366,40.7699585c-3.7099609,9.2800293-8.9899902,12.0599976-15.9199829,12.0599976-3.9299927,0-8.210022-1.2799683-10.710022-3.5l4.0700073-7.9199829c1.710022,1.5,4.0700073,2.4299927,6.2800293,2.4299927,3.0700073,0,4.789978-1.3599854,6.289978-4.789978l.1400146-.3499756L82.9643171,3.690965h12.8300171c-6.6300049,8.2799683-1.710022,14.0499878,3.1099854,20.7699585.8800049,1.25,1.8099976,2.4800415,2.710022,3.7000122,2.6900024,3.6699829,4.3099976,7.2000122,1.1300049,10.5499878,3.1999512-1.8599854,5.8800049-4.5,7.8699951-7.5599976,4.1699829-6.3499756,5.3399658-14.4899902,2.0499878-20.9400024-.960022-2.8599854-5.1900024-6.2099609-8.2299805-4.9299927l-.5200195-1.5899658h22.8900146Z"/><polygon class="cls-1" points="69.3331584 3.8321978 54.8019387 28.3323356 40.0460674 3.8321978 32.4977699 3.8321978 32.4977699 43.2576314 41.0588728 43.2576314 41.0588728 20.1091481 52.6059678 39.0894075 56.7170938 39.0894075 68.3184784 19.6027454 68.3755782 43.2576314 76.9357437 43.2576314 76.8234189 3.8321978 69.3331584 3.8321978"/></svg>