<?xml version="1.0" encoding="UTF-8"?><svg id="Layer_1" xmlns="http://www.w3.org/2000/svg" xmlns:xlink="http://www.w3.org/1999/xlink" viewBox="0 0 453.8388626 59.7497455"><defs><style>.cls-1{fill:url(#linear-gradient-2);}.cls-2{mask:url(#mask-1);}.cls-3{fill:#fff;}.cls-4{mask:url(#mask);}.cls-5{fill:url(#linear-gradient-4);}.cls-6{mask:url(#mask-2);}.cls-7{fill:url(#linear-gradient-3);}.cls-8{fill:url(#linear-gradient-5);}.cls-8,.cls-9,.cls-10,.cls-11,.cls-12,.cls-13,.cls-14{fill-rule:evenodd;}.cls-9{fill:#003301;}.cls-15{fill:url(#linear-gradient-8);}.cls-10{fill:#102770;}.cls-16{fill:url(#linear-gradient-9);}.cls-11{fill:#b8f54f;}.cls-17{fill:url(#linear-gradient-6);}.cls-12{fill:#006c11;}.cls-13{fill:url(#linear-gradient-7);}.cls-18{mask:url(#mask-4);}.cls-19{fill:#6bae2e;}.cls-14{fill:#007c21;}.cls-20{fill:#0072b1;}.cls-21{fill:url(#linear-gradient);}.cls-22{mask:url(#mask-3);}</style><linearGradient id="linear-gradient" x1="43.8533131" y1="31.0376186" x2="3.6505467" y2="23.3503491" gradientUnits="userSpaceOnUse"><stop offset="0" stop-color="#006100"/><stop offset="1" stop-color="#cfff5b"/></linearGradient><linearGradient id="linear-gradient-2" x1="40.8384265" y1="46.8048275" x2=".6356601" y2="39.117558" xlink:href="#linear-gradient"/><linearGradient id="linear-gradient-3" x1="4187.3928708" y1="-8057.9226601" x2="3437.4818774" y2="-8482.4905422" gradientTransform="translate(-239.3628 -555.0083) scale(.072 -.072)" gradientUnits="userSpaceOnUse"><stop offset="0" stop-color="#fff"/><stop offset="1" stop-color="#fff" stop-opacity="0"/></linearGradient><mask id="mask" x="14.0361834" y="35.0180076" width="23.4058045" height="21.5038761" maskUnits="userSpaceOnUse"><g id="id0"><rect class="cls-7" x="14.0361834" y="35.0180076" width="23.4058045" height="21.4936593"/></g></mask><linearGradient id="linear-gradient-4" x1="2878.9102301" y1="-7610.8553483" x2="3924.0832343" y2="-8348.5837242" xlink:href="#linear-gradient-3"/><mask id="mask-1" x="13.961598" y="25.8886" width="23.4803899" height="15.7428432" maskUnits="userSpaceOnUse"><g id="id2"><rect class="cls-5" x="13.964297" y="25.8886" width="23.4776909" height="15.7428432"/></g></mask><linearGradient id="linear-gradient-5" x1="52.3288146" y1="27.7310938" x2="16.2721908" y2="10.7162967" gradientUnits="userSpaceOnUse"><stop offset="0" stop-color="#004790"/><stop offset="1" stop-color="#1297e0"/></linearGradient><linearGradient id="linear-gradient-6" x1="4470.6744861" y1="-8062.287506" x2="3738.658602" y2="-7854.0683823" xlink:href="#linear-gradient-3"/><mask id="mask-2" x="34.1784061" y="3.2278618" width="13.0148502" height="20.6910856" maskUnits="userSpaceOnUse"><g id="id4"><rect class="cls-17" x="34.1784061" y="3.2303985" width="13.0112036" height="20.6885489"/></g></mask><linearGradient id="linear-gradient-7" x1="4079.5515873" y1="-8074.9117041" x2="3461.4029625" y2="-8174.1411226" gradientTransform="translate(-239.3628 -555.0083) scale(.072 -.072)" xlink:href="#linear-gradient"/><linearGradient id="linear-gradient-8" x1="3268.8667469" y1="-8111.4111076" x2="4031.7923366" y2="-8192.7432663" xlink:href="#linear-gradient-3"/><mask id="mask-3" x="14.4531158" y="25.8310909" width="35.6837926" height="14.1038595" maskUnits="userSpaceOnUse"><g id="id6"><rect class="cls-15" x="14.4531158" y="25.8310909" width="35.6837926" height="14.1038595"/></g></mask><linearGradient id="linear-gradient-9" x1="4103.1128366" y1="-7984.4303962" x2="3520.8677181" y2="-8140.5765265" xlink:href="#linear-gradient-3"/><mask id="mask-4" x="19.8157454" y="21.0435351" width="28.3083786" height="9.5032167" maskUnits="userSpaceOnUse"><g id="id8"><rect class="cls-16" x="19.8157454" y="21.0435351" width="28.3083786" height="9.5032167"/></g></mask></defs><path class="cls-20" d="M417.7379367,29.0796524l9.4625243-21.1771639,9.4615816,21.1771639h-18.9241059ZM442.9138982,42.9912091h4.39287l-18.0226791-39.4254336h-4.1111242l-18.0236218,39.4254336h4.3367094l4.7308051-10.5324204h21.9662641l4.7307765,10.5324204ZM380.1724135,42.9912091h26.2458702v-3.6047251h-22.0785853V3.5657755h-4.1672848v39.4254336ZM351.4479054,43.3291227c10.0821766,0,16.1646077-5.8577956,16.1646077-17.1783664V3.5657755h-4.0549635v22.4164918c0,9.3492532-4.39287,13.6298055-12.1096441,13.6298055-7.6596993,0-12.0525694-4.2805523-12.0525694-13.6298055V3.5657755h-4.1682275v22.5849809c0,11.3205708,6.1395343,17.1783664,16.2207969,17.1783664h0ZM319.2890002,3.5657755l-16.9527705,29.2309268-17.122195-29.2309268h-3.4352969v39.4254336h3.9987886V11.6195384l15.4887947,26.359127h1.9713069l15.4888232-26.527616v31.5401598h3.9988029V3.5657755h-3.4362539ZM255.7022922,26.9398458h-10.476258V7.170497h10.476258c7.8852703,0,12.0525551,3.6047251,12.0525551,9.9127556,0,6.1957057-4.1672848,9.8565932-12.0525551,9.8565932h0ZM272.5427414,42.9912091l-9.6310062-13.5174807c5.7445245-1.8580572,9.0113396-6.1947702,9.0113396-12.3904759,0-8.4487727-6.0824453-13.5174771-16.1084613-13.5174771h-14.7558784v39.4254336h4.1672991v-12.5037398h10.5885793c1.1269977,0,2.1407457-.0561624,3.1544795-.168489l9.0113396,12.6722288h4.5623089ZM211.0396615,39.6120728c-9.5186849,0-16.614864-6.9276972-16.614864-16.3331146,0-9.4063529,7.0961791-16.3340465,16.614864-16.3340465,9.4615816,0,16.5025427,6.9276936,16.5025427,16.3340465,0,9.4054174-7.0409611,16.3331146-16.5025427,16.3331146h0ZM211.0396615,43.3291227c11.8279125,0,20.6698275-8.5049405,20.6698275-20.0501645,0-11.5461595-8.841915-20.0510964-20.6698275-20.0510964-11.9402338,0-20.7269308,8.5611011-20.7269308,20.0510964,0,11.4890616,8.786697,20.0501645,20.7269308,20.0501645h0ZM185.6942754,7.170497v-3.6047215h-27.0349614v39.4254336h4.1682275v-16.7271888h20.3890101v-3.6047251h-20.3890101V7.170497h22.8667339Z"/><path class="cls-19" d="M152.7700195,3.6900024l-17.3500366,40.7699585c-3.7099609,9.2800293-8.9899902,12.0599976-15.9199829,12.0599976-3.9299927,0-8.210022-1.2799683-10.710022-3.5l4.0700073-7.9199829c1.710022,1.5,4.0700073,2.4299927,6.2800293,2.4299927,3.0700073,0,4.789978-1.3599854,6.289978-4.789978l.1400146-.3499756L108.9299927,3.6900024h12.8300171c-6.6300049,8.2799683-1.710022,14.0499878,3.1099854,20.7699585.8800049,1.25,1.8099976,2.4800415,2.710022,3.7000122,2.6900024,3.6699829,4.3099976,7.2000122,1.1300049,10.5499878,3.1999512-1.8599854,5.8800049-4.5,7.8699951-7.5599976,4.1699829-6.3499756,5.3399658-14.4899902,2.0499878-20.9400024-.960022-2.8599854-5.1900024-6.2099609-8.2299805-4.9299927l-.5200195-1.5899658h22.8900146Z"/><polygon class="cls-19" points="95.298834 3.8312352 80.7676142 28.331373 66.011743 3.8312352 58.4634455 3.8312352 58.4634455 43.2566688 67.0245483 43.2566688 67.0245483 20.1081855 78.5716434 39.0884449 82.6827694 39.0884449 94.284154 19.6017828 94.3412538 43.2566688 102.9014193 43.2566688 102.7890945 3.8312352 95.298834 3.8312352"/><g id="Layer_1-2"><g id="_2244124604544"><path class="cls-3" d="M8.4445724,39.726532c-.2578125,1.0749512-.5156326,2.1498718-.7734451,3.224823v6.2666626c1.6505051.7485657,3.3010178,1.4971313,4.9515228,2.245697,1.6931305-10.5421753,1.8470688-16.024292.4616089-16.4457092-.3984375-.1211853-.9241638.1761475-1.5771484.8919373-.7003555.2493591-1.4007034.4986877-2.101059.7480469-.3204956,1.0228577-.6409836,2.0456848-.9614792,3.0685425Z"/><path class="cls-3" d="M31.1216354,5.2667542c-1.3059464.811554-2.6119003,1.6231079-3.9178467,2.4346619-2.4265366,3.7095337-4.8530807,7.4190674-7.2796173,11.1286011l4.5497589,1.1557617c2.6390686-4.1575928,5.2781296-8.3152161,7.9171982-12.4728088,1.3385773-.8380737,2.6771545-1.6761169,4.0157318-2.5141907l-5.2852249.2679749Z"/><path class="cls-21" d="M14.6544189,27.5275879c-.0010986.0070801-.0010376.0137329-.0021362.020813l2.1730347-3.7732544-2.1708984,3.7524414Z"/><path class="cls-1" d="M17.9036255,36.7001343c-2.7121582-2.1955566-3.833252-5.4370117-3.2513428-9.1517334l-6.553833,11.380127c-3.2348022,5.5926514-1.2938843,12.8099365,4.2987671,16.0303955s12.8099365,1.2939453,16.0447388-4.2987061l9.000061-15.6422119c-5.980896,4.2556152-12.22052,7.5910645-19.5383911,1.6821289ZM12.9147949,39.3886108l-1.020813,1.7683716c-1.2938843,2.6885376-2.1708984,5.6789551-1.9121094,8.6262207.0287476.2731934.0574951.56073.1149902.8482666-2.1134033-2.9760742-2.5159912-6.9872437-.7619629-10.3945923l1.0782471-1.8546753c1.12146-1.9121094,3.2923584-.3737793,2.5016479,1.0064087Z"/><g class="cls-4"><path class="cls-12" d="M14.0361834,55.7496883c5.3051205,2.0271616,11.4872462-.0287545,14.4057839-5.08947l9.0000206-15.6422107h0c-2.7460084,1.9552753-5.5495343,3.7236545-8.4824472,4.4712558l-6.0239778,10.4664771c-1.940898,3.3498538-5.3051205,5.3913927-8.8993795,5.7939479Z"/></g><g class="cls-2"><path class="cls-9" d="M15.617658,25.8886l-1.3801928,2.386585c-.7332324,3.2923363-.0287528,6.5271719,2.4009622,9.0287751,6.0095984,6.1964947,12.019199,4.8450564,18.6613807,1.4377019l2.1421798-3.7236545h0c-5.980844,4.2556051-12.2204726,7.5910732-19.5383859,1.6821155-2.7172538-2.1996889-3.8386623-5.4488934-3.2492044-9.1725479l.9632603-1.6389753h0Z"/></g><path class="cls-8" d="M41.3237915,4.7974854c-5.5926514-3.2348633-12.8099365-1.2939453-16.0303955,4.2987061l-7.1309814,12.3786621-.4025879.6900635c-1.8115234,4.8881836-.3162842,6.9584961,1.7540283,7.8642578-.0863037-.1293945-.1582031-.2731934-.2300415-.4169312-1.3370972-3.2492065,2.6741333-6.3546753,5.1757202-7.6054688,6.2108765-3.119812,13.7444458-1.7827148,19.380249,1.9121704l1.7971191-3.0910645c3.220459-5.5926514,1.279541-12.8099365-4.3131104-16.0303955ZM35.6160889,5.3294067c-3.4216919,1.5958862-6.0095825,4.8450928-7.8067017,8.0655518l-2.5447388,4.4281006c-1.279541,2.2140503-3.4648438.819519-2.4872437-.920105l4.0111694-6.9440918c1.9984131-3.4936523,5.8370972-5.3051758,9.6182861-4.960083-.2731934.1005859-.5463257.2156372-.7907715.3306274Z"/><g class="cls-6"><path class="cls-10" d="M45.6368981,20.8278845c3.2204499-5.5926661,1.2795519-12.8099387-4.3131142-16.0303886-2.2428123-1.2939292-4.7444155-1.7683707-7.1453778-1.495211.5606968.2156591,1.1070247.4744415,1.6389753.7907331,5.5926661,3.2204584,7.5335641,10.4377225,4.3131142,16.0303886l-.8626279,1.4808337c1.6102292.603837,3.1629493,1.3801928,4.5718967,2.3147071l1.7971337-3.0910629Z"/></g><path class="cls-13" d="M24.8477063,22.7544052c-2.0846707,1.0351467-5.9089575,3.8386642-4.7875453,6.5415492.6038351,1.4520792,2.7603837,1.7971253,5.3338732-.0287545-3.8386641,4.8163019-11.8035378.15815-8.4536925-5.693307l-.0143773.0287545-2.2715668,3.9249278c-.5894579,3.7236545.5319506,6.9728589,3.2492044,9.1725479,7.3179133,5.9089577,13.5575418,2.5734896,19.5383859-1.6821155,1.1070331-.7763558,2.1996889-1.5958435,3.2923363-2.386585,3.2635902-2.3722077,6.3977849-3.7955324,9.3594524-.9632604-1.6389837-2.8466493-3.9680597-5.2332343-6.6709447-7.0159908-5.6214207-3.723646-12.8386848-4.7875473-18.5751257-1.8977662Z"/><g class="cls-22"><path class="cls-11" d="M32.2950088,35.7799946c-6.6853156,4.4281239-18.1438073-.2587909-16.6773508-9.8913946l-.9632603,1.6389753c-.5894579,3.7236545.5319506,6.9728589,3.2492044,9.1725479,3.9536823,3.1917038,7.6054503,3.6948999,11.0559387,2.7891402,2.9329129-.7476013,5.7364388-2.5159805,8.4824472-4.4712558,1.1070331-.7763558,2.1996889-1.5958435,3.2923363-2.386585,3.2635902-2.3722077,6.3977849-3.7955324,9.3594524-.9632604-4.3850005-5.6789297-8.9281342-1.7539935-17.7987678,4.1118324Z"/></g><g class="cls-18"><path class="cls-14" d="M23.7981823,25.5147909c4.1405868-4.4281239,17.2524419-3.8530415,24.2684327,3.2492129-1.3370694-1.5958519-2.9185357-2.9760447-4.643783-4.1118324-5.6214207-3.723646-12.8386848-4.7875473-18.5751257-1.8977662-2.0846707,1.0351467-5.9089575,3.8386642-4.7875453,6.5415492.6038351,1.4520792,2.7603837,1.7971253,5.3338732-.0287545-3.6948914.8769967-2.9616674-2.3147071-1.5958519-3.752409Z"/></g></g></g></svg>